<?xml version="1.0" encoding="UTF-8" standalone="no"?>
<!DOCTYPE svg PUBLIC "-//W3C//DTD SVG 1.1//EN"
 "http://www.w3.org/Graphics/SVG/1.1/DTD/svg11.dtd">
<!-- Generated by graphviz version 10.0.1 (20240210.2158)
 -->
<!-- Title: Alice Pages: 1 -->
<svg width="468pt" height="690pt"
 viewBox="0.00 0.00 467.77 689.80" xmlns="http://www.w3.org/2000/svg" xmlns:xlink="http://www.w3.org/1999/xlink">
<g id="graph0" class="graph" transform="scale(1 1) rotate(0) translate(4 685.8)">
<title>Alice</title>
<polygon fill="white" stroke="none" points="-4,4 -4,-685.8 463.77,-685.8 463.77,4 -4,4"/>
<!-- Entry -->
<g id="node1" class="node">
<title>Entry</title>
<ellipse fill="black" stroke="#00688b" cx="179" cy="-674.6" rx="7.2" ry="7.2"/>
</g>
<!-- Start -->
<g id="node2" class="node">
<title>Start</title>
<path fill="azure" stroke="none" d="M194,-630.4C194,-630.4 164,-630.4 164,-630.4 158,-630.4 152,-624.4 152,-618.4 152,-618.4 152,-597.6 152,-597.6 152,-591.6 158,-585.6 164,-585.6 164,-585.6 194,-585.6 194,-585.6 200,-585.6 206,-591.6 206,-597.6 206,-597.6 206,-618.4 206,-618.4 206,-624.4 200,-630.4 194,-630.4"/>
<text text-anchor="start" x="165.78" y="-609.8" font-family="Times,serif" font-size="14.00">Start</text>
<polygon fill="#00688b" stroke="#00688b" points="157.78,-599.6 157.78,-599.6 200.22,-599.6 200.22,-599.6 157.78,-599.6"/>
<path fill="none" stroke="#00688b" d="M169.78,-585.6C169.78,-585.6 188.22,-585.6 188.22,-585.6 194.22,-585.6 200.22,-591.6 200.22,-597.6 200.22,-597.6 200.22,-618.4 200.22,-618.4 200.22,-624.4 194.22,-630.4 188.22,-630.4 188.22,-630.4 169.78,-630.4 169.78,-630.4 163.78,-630.4 157.78,-624.4 157.78,-618.4 157.78,-618.4 157.78,-597.6 157.78,-597.6 157.78,-591.6 163.78,-585.6 169.78,-585.6"/>
</g>
<!-- Entry&#45;&gt;Start -->
<g id="edge1" class="edge">
<title>Entry&#45;&gt;Start</title>
<path fill="none" stroke="red" d="M179,-667.17C179,-661.02 179,-651.27 179,-641.49"/>
<polygon fill="red" stroke="red" points="182.5,-641.73 179,-631.73 175.5,-641.73 182.5,-641.73"/>
</g>
<!-- GreetBob -->
<g id="node3" class="node">
<title>GreetBob</title>
<path fill="azure" stroke="none" d="M202.21,-532.8C202.21,-532.8 155.79,-532.8 155.79,-532.8 149.79,-532.8 143.79,-526.8 143.79,-520.8 143.79,-520.8 143.79,-500 143.79,-500 143.79,-494 149.79,-488 155.79,-488 155.79,-488 202.21,-488 202.21,-488 208.21,-488 214.21,-494 214.21,-500 214.21,-500 214.21,-520.8 214.21,-520.8 214.21,-526.8 208.21,-532.8 202.21,-532.8"/>
<text text-anchor="start" x="151.79" y="-512.2" font-family="Times,serif" font-size="14.00">GreetBob</text>
<polygon fill="#00688b" stroke="#00688b" points="143.79,-502 143.79,-502 214.21,-502 214.21,-502 143.79,-502"/>
<path fill="none" stroke="#00688b" d="M155.79,-488C155.79,-488 202.21,-488 202.21,-488 208.21,-488 214.21,-494 214.21,-500 214.21,-500 214.21,-520.8 214.21,-520.8 214.21,-526.8 208.21,-532.8 202.21,-532.8 202.21,-532.8 155.79,-532.8 155.79,-532.8 149.79,-532.8 143.79,-526.8 143.79,-520.8 143.79,-520.8 143.79,-500 143.79,-500 143.79,-494 149.79,-488 155.79,-488"/>
</g>
<!-- Start&#45;&gt;GreetBob -->
<g id="edge2" class="edge">
<title>Start&#45;&gt;GreetBob</title>
<path fill="none" stroke="red" d="M179,-585.78C179,-573.53 179,-557.86 179,-544.06"/>
<polygon fill="red" stroke="red" points="182.5,-544.07 179,-534.07 175.5,-544.07 182.5,-544.07"/>
<text text-anchor="middle" x="203.11" y="-555" font-family="Times,serif" font-size="14.00"> seeBob </text>
</g>
<!-- WaitForGreeting -->
<g id="node4" class="node">
<title>WaitForGreeting</title>
<path fill="azure" stroke="none" d="M222.82,-435.2C222.82,-435.2 135.18,-435.2 135.18,-435.2 129.18,-435.2 123.18,-429.2 123.18,-423.2 123.18,-423.2 123.18,-402.4 123.18,-402.4 123.18,-396.4 129.18,-390.4 135.18,-390.4 135.18,-390.4 222.82,-390.4 222.82,-390.4 228.82,-390.4 234.82,-396.4 234.82,-402.4 234.82,-402.4 234.82,-423.2 234.82,-423.2 234.82,-429.2 228.82,-435.2 222.82,-435.2"/>
<text text-anchor="start" x="131.18" y="-414.6" font-family="Times,serif" font-size="14.00">WaitForGreeting</text>
<polygon fill="#00688b" stroke="#00688b" points="123.18,-404.4 123.18,-404.4 234.82,-404.4 234.82,-404.4 123.18,-404.4"/>
<path fill="none" stroke="#00688b" d="M135.18,-390.4C135.18,-390.4 222.82,-390.4 222.82,-390.4 228.82,-390.4 234.82,-396.4 234.82,-402.4 234.82,-402.4 234.82,-423.2 234.82,-423.2 234.82,-429.2 228.82,-435.2 222.82,-435.2 222.82,-435.2 135.18,-435.2 135.18,-435.2 129.18,-435.2 123.18,-429.2 123.18,-423.2 123.18,-423.2 123.18,-402.4 123.18,-402.4 123.18,-396.4 129.18,-390.4 135.18,-390.4"/>
</g>
<!-- GreetBob&#45;&gt;WaitForGreeting -->
<g id="edge4" class="edge">
<title>GreetBob&#45;&gt;WaitForGreeting</title>
<path fill="none" stroke="red" d="M179,-488.18C179,-475.93 179,-460.26 179,-446.46"/>
<polygon fill="red" stroke="red" points="182.5,-446.47 179,-436.47 175.5,-446.47 182.5,-446.47"/>
<text text-anchor="middle" x="214.78" y="-457.4" font-family="Times,serif" font-size="14.00"> hiBob_Ack </text>
</g>
<!-- TimeoutError -->
<g id="node7" class="node">
<title>TimeoutError</title>
<path fill="azure" stroke="none" d="M142.49,-142.4C142.49,-142.4 73.51,-142.4 73.51,-142.4 67.51,-142.4 61.51,-136.4 61.51,-130.4 61.51,-130.4 61.51,-109.6 61.51,-109.6 61.51,-103.6 67.51,-97.6 73.51,-97.6 73.51,-97.6 142.49,-97.6 142.49,-97.6 148.49,-97.6 154.49,-103.6 154.49,-109.6 154.49,-109.6 154.49,-130.4 154.49,-130.4 154.49,-136.4 148.49,-142.4 142.49,-142.4"/>
<text text-anchor="start" x="69.51" y="-121.8" font-family="Times,serif" font-size="14.00">TimeoutError</text>
<polygon fill="#00688b" stroke="#00688b" points="61.51,-111.6 61.51,-111.6 154.49,-111.6 154.49,-111.6 61.51,-111.6"/>
<path fill="none" stroke="#00688b" d="M73.51,-97.6C73.51,-97.6 142.49,-97.6 142.49,-97.6 148.49,-97.6 154.49,-103.6 154.49,-109.6 154.49,-109.6 154.49,-130.4 154.49,-130.4 154.49,-136.4 148.49,-142.4 142.49,-142.4 142.49,-142.4 73.51,-142.4 73.51,-142.4 67.51,-142.4 61.51,-136.4 61.51,-130.4 61.51,-130.4 61.51,-109.6 61.51,-109.6 61.51,-103.6 67.51,-97.6 73.51,-97.6"/>
</g>
<!-- GreetBob&#45;&gt;TimeoutError -->
<g id="edge3" class="edge">
<title>GreetBob&#45;&gt;TimeoutError</title>
<path fill="none" stroke="red" d="M144.06,-506.3C91.97,-499.54 0,-478.45 0,-413.8 0,-413.8 0,-413.8 0,-216.6 0,-185.38 25.62,-161.89 51.9,-146.01"/>
<polygon fill="red" stroke="red" points="53.3,-149.24 60.26,-141.25 49.83,-143.16 53.3,-149.24"/>
<text text-anchor="middle" x="24.89" y="-311" font-family="Times,serif" font-size="14.00"> timeout </text>
</g>
<!-- ProtocolError -->
<g id="node8" class="node">
<title>ProtocolError</title>
<path fill="azure" stroke="none" d="M423.49,-240C423.49,-240 354.51,-240 354.51,-240 348.51,-240 342.51,-234 342.51,-228 342.51,-228 342.51,-207.2 342.51,-207.2 342.51,-201.2 348.51,-195.2 354.51,-195.2 354.51,-195.2 423.49,-195.2 423.49,-195.2 429.49,-195.2 435.49,-201.2 435.49,-207.2 435.49,-207.2 435.49,-228 435.49,-228 435.49,-234 429.49,-240 423.49,-240"/>
<text text-anchor="start" x="350.51" y="-219.4" font-family="Times,serif" font-size="14.00">ProtocolError</text>
<polygon fill="#00688b" stroke="#00688b" points="342.51,-209.2 342.51,-209.2 435.49,-209.2 435.49,-209.2 342.51,-209.2"/>
<path fill="none" stroke="#00688b" d="M354.51,-195.2C354.51,-195.2 423.49,-195.2 423.49,-195.2 429.49,-195.2 435.49,-201.2 435.49,-207.2 435.49,-207.2 435.49,-228 435.49,-228 435.49,-234 429.49,-240 423.49,-240 423.49,-240 354.51,-240 354.51,-240 348.51,-240 342.51,-234 342.51,-228 342.51,-228 342.51,-207.2 342.51,-207.2 342.51,-201.2 348.51,-195.2 354.51,-195.2"/>
</g>
<!-- GreetBob&#45;&gt;ProtocolError -->
<g id="edge5" class="edge">
<title>GreetBob&#45;&gt;ProtocolError</title>
<path fill="none" stroke="red" d="M213.96,-494.72C227.47,-488.19 242.63,-479.76 255,-470 345.11,-398.94 383.92,-382.33 424,-274.8 427.25,-266.07 424.94,-257.24 420.26,-249.24"/>
<polygon fill="red" stroke="red" points="423.15,-247.26 414.47,-241.19 417.46,-251.35 423.15,-247.26"/>
<text text-anchor="middle" x="420.88" y="-359.8" font-family="Times,serif" font-size="14.00"> hiBob_Nack </text>
</g>
<!-- FareWellBob -->
<g id="node5" class="node">
<title>FareWellBob</title>
<path fill="azure" stroke="none" d="M284.71,-337.6C284.71,-337.6 217.29,-337.6 217.29,-337.6 211.29,-337.6 205.29,-331.6 205.29,-325.6 205.29,-325.6 205.29,-304.8 205.29,-304.8 205.29,-298.8 211.29,-292.8 217.29,-292.8 217.29,-292.8 284.71,-292.8 284.71,-292.8 290.71,-292.8 296.71,-298.8 296.71,-304.8 296.71,-304.8 296.71,-325.6 296.71,-325.6 296.71,-331.6 290.71,-337.6 284.71,-337.6"/>
<text text-anchor="start" x="213.29" y="-317" font-family="Times,serif" font-size="14.00">FareWellBob</text>
<polygon fill="#00688b" stroke="#00688b" points="205.29,-306.8 205.29,-306.8 296.71,-306.8 296.71,-306.8 205.29,-306.8"/>
<path fill="none" stroke="#00688b" d="M217.29,-292.8C217.29,-292.8 284.71,-292.8 284.71,-292.8 290.71,-292.8 296.71,-298.8 296.71,-304.8 296.71,-304.8 296.71,-325.6 296.71,-325.6 296.71,-331.6 290.71,-337.6 284.71,-337.6 284.71,-337.6 217.29,-337.6 217.29,-337.6 211.29,-337.6 205.29,-331.6 205.29,-325.6 205.29,-325.6 205.29,-304.8 205.29,-304.8 205.29,-298.8 211.29,-292.8 217.29,-292.8"/>
</g>
<!-- WaitForGreeting&#45;&gt;FareWellBob -->
<g id="edge7" class="edge">
<title>WaitForGreeting&#45;&gt;FareWellBob</title>
<path fill="none" stroke="red" d="M194.98,-390.58C204.77,-377.59 217.45,-360.75 228.27,-346.38"/>
<polygon fill="red" stroke="red" points="230.93,-348.66 234.15,-338.57 225.34,-344.45 230.93,-348.66"/>
<text text-anchor="middle" x="243.1" y="-359.8" font-family="Times,serif" font-size="14.00"> hiAlice </text>
</g>
<!-- WaitForGreeting&#45;&gt;TimeoutError -->
<g id="edge6" class="edge">
<title>WaitForGreeting&#45;&gt;TimeoutError</title>
<path fill="none" stroke="red" d="M160.76,-390.84C139.96,-365.41 107.16,-320.27 94.23,-274.8 82.6,-233.92 90.66,-184.69 98.48,-153.13"/>
<polygon fill="red" stroke="red" points="101.77,-154.38 100.92,-143.81 95,-152.6 101.77,-154.38"/>
<text text-anchor="middle" x="119.89" y="-262.2" font-family="Times,serif" font-size="14.00"> timeout </text>
</g>
<!-- WaitForFarewell -->
<g id="node6" class="node">
<title>WaitForFarewell</title>
<path fill="azure" stroke="none" d="M205.82,-240C205.82,-240 118.18,-240 118.18,-240 112.18,-240 106.18,-234 106.18,-228 106.18,-228 106.18,-207.2 106.18,-207.2 106.18,-201.2 112.18,-195.2 118.18,-195.2 118.18,-195.2 205.82,-195.2 205.82,-195.2 211.82,-195.2 217.82,-201.2 217.82,-207.2 217.82,-207.2 217.82,-228 217.82,-228 217.82,-234 211.82,-240 205.82,-240"/>
<text text-anchor="start" x="114.18" y="-219.4" font-family="Times,serif" font-size="14.00">WaitForFarewell</text>
<polygon fill="#00688b" stroke="#00688b" points="106.18,-209.2 106.18,-209.2 217.82,-209.2 217.82,-209.2 106.18,-209.2"/>
<path fill="none" stroke="#00688b" d="M118.18,-195.2C118.18,-195.2 205.82,-195.2 205.82,-195.2 211.82,-195.2 217.82,-201.2 217.82,-207.2 217.82,-207.2 217.82,-228 217.82,-228 217.82,-234 211.82,-240 205.82,-240 205.82,-240 118.18,-240 118.18,-240 112.18,-240 106.18,-234 106.18,-228 106.18,-228 106.18,-207.2 106.18,-207.2 106.18,-201.2 112.18,-195.2 118.18,-195.2"/>
</g>
<!-- FareWellBob&#45;&gt;WaitForFarewell -->
<g id="edge9" class="edge">
<title>FareWellBob&#45;&gt;WaitForFarewell</title>
<path fill="none" stroke="red" d="M205.42,-307.66C185.58,-302.29 164.15,-292.54 152.12,-274.8 147.38,-267.81 146.9,-259.24 148.36,-250.92"/>
<polygon fill="red" stroke="red" points="151.71,-251.94 150.94,-241.37 144.95,-250.11 151.71,-251.94"/>
<text text-anchor="middle" x="207.44" y="-262.2" font-family="Times,serif" font-size="14.00"> goodbyeBob_Ack </text>
</g>
<!-- FareWellBob&#45;&gt;TimeoutError -->
<g id="edge8" class="edge">
<title>FareWellBob&#45;&gt;TimeoutError</title>
<path fill="none" stroke="red" d="M259.01,-292.96C261.94,-282.38 263.9,-269.43 261,-258 253.21,-227.23 247.68,-219.28 227,-195.2 209.87,-175.26 186.03,-158.94 164.17,-146.74"/>
<polygon fill="red" stroke="red" points="166.1,-143.8 155.64,-142.14 162.78,-149.96 166.1,-143.8"/>
<text text-anchor="middle" x="279.89" y="-213.4" font-family="Times,serif" font-size="14.00"> timeout </text>
</g>
<!-- FareWellBob&#45;&gt;ProtocolError -->
<g id="edge10" class="edge">
<title>FareWellBob&#45;&gt;ProtocolError</title>
<path fill="none" stroke="red" d="M269.73,-293.04C280.45,-281.72 294.59,-268.09 308.91,-258 316.29,-252.8 324.47,-247.92 332.69,-243.49"/>
<polygon fill="red" stroke="red" points="334.07,-246.72 341.35,-239.01 330.86,-240.5 334.07,-246.72"/>
<text text-anchor="middle" x="365.54" y="-262.2" font-family="Times,serif" font-size="14.00"> goodbyeBob_Nack </text>
</g>
<!-- WaitForFarewell&#45;&gt;TimeoutError -->
<g id="edge11" class="edge">
<title>WaitForFarewell&#45;&gt;TimeoutError</title>
<path fill="none" stroke="red" d="M139.78,-195.41C134.82,-189.84 129.93,-183.59 126.23,-177.2 121.91,-169.76 118.47,-161.16 115.79,-152.96"/>
<polygon fill="red" stroke="red" points="119.22,-152.22 113.02,-143.63 112.51,-154.21 119.22,-152.22"/>
<text text-anchor="middle" x="151.89" y="-164.6" font-family="Times,serif" font-size="14.00"> timeout </text>
</g>
<!-- End -->
<g id="node9" class="node">
<title>End</title>
<path fill="azure" stroke="none" d="M205,-44.8C205,-44.8 175,-44.8 175,-44.8 169,-44.8 163,-38.8 163,-32.8 163,-32.8 163,-12 163,-12 163,-6 169,0 175,0 175,0 205,0 205,0 211,0 217,-6 217,-12 217,-12 217,-32.8 217,-32.8 217,-38.8 211,-44.8 205,-44.8"/>
<text text-anchor="start" x="178.72" y="-24.2" font-family="Times,serif" font-size="14.00">End</text>
<polygon fill="#00688b" stroke="#00688b" points="170.72,-14 170.72,-14 209.28,-14 209.28,-14 170.72,-14"/>
<path fill="none" stroke="#00688b" d="M182.72,0C182.72,0 197.28,0 197.28,0 203.28,0 209.28,-6 209.28,-12 209.28,-12 209.28,-32.8 209.28,-32.8 209.28,-38.8 203.28,-44.8 197.28,-44.8 197.28,-44.8 182.72,-44.8 182.72,-44.8 176.72,-44.8 170.72,-38.8 170.72,-32.8 170.72,-32.8 170.72,-12 170.72,-12 170.72,-6 176.72,0 182.72,0"/>
</g>
<!-- WaitForFarewell&#45;&gt;End -->
<g id="edge12" class="edge">
<title>WaitForFarewell&#45;&gt;End</title>
<path fill="none" stroke="red" d="M170.7,-195.21C172.74,-189.45 174.69,-183.16 176,-177.2 185.07,-135.87 188.28,-87.04 189.41,-55.67"/>
<polygon fill="red" stroke="red" points="192.89,-56.17 189.7,-46.06 185.9,-55.95 192.89,-56.17"/>
<text text-anchor="middle" x="229.77" y="-115.8" font-family="Times,serif" font-size="14.00"> goodbyeAlice </text>
</g>
<!-- TimeoutError&#45;&gt;End -->
<g id="edge13" class="edge">
<title>TimeoutError&#45;&gt;End</title>
<path fill="none" stroke="red" d="M126.2,-97.78C137.45,-84.66 152.07,-67.63 164.47,-53.17"/>
<polygon fill="red" stroke="red" points="167.01,-55.58 170.87,-45.71 161.7,-51.02 167.01,-55.58"/>
<text text-anchor="middle" x="161.45" y="-67" font-family="Times,serif" font-size="14.00"> &gt; </text>
</g>
<!-- ProtocolError&#45;&gt;End -->
<g id="edge14" class="edge">
<title>ProtocolError&#45;&gt;End</title>
<path fill="none" stroke="red" d="M370.24,-195.3C348.52,-170.96 311.31,-130.27 277,-97.6 260.5,-81.89 241.32,-65.36 225.16,-51.89"/>
<polygon fill="red" stroke="red" points="227.64,-49.4 217.7,-45.72 223.18,-54.79 227.64,-49.4"/>
<text text-anchor="middle" x="327.45" y="-115.8" font-family="Times,serif" font-size="14.00"> &gt; </text>
</g>
</g>
</svg>
